<svg width="25" height="25" viewBox="0 0 25 25" fill="none" xmlns="http://www.w3.org/2000/svg">
<path d="M12.8051 6.77824C12.3983 6.37144 12.3983 5.71189 12.8051 5.3051C13.2119 4.8983 13.8714 4.8983 14.2782 5.3051L20.5282 11.5551C20.9226 11.9495 20.9364 12.5844 20.5595 12.9955L14.8304 19.2455C14.4416 19.6696 13.7827 19.6983 13.3586 19.3095C12.9345 18.9208 12.9059 18.2619 13.2946 17.8378L18.3499 12.323L12.8051 6.77824Z" fill="#B5B5C3"/>
<path opacity="0.3" d="M5.51351 6.77824C5.10671 6.37144 5.10671 5.71189 5.51351 5.3051C5.92031 4.8983 6.57985 4.8983 6.98665 5.3051L13.2366 11.5551C13.631 11.9495 13.6448 12.5844 13.2679 12.9955L7.53878 19.2455C7.15004 19.6696 6.49111 19.6983 6.06703 19.3095C5.64295 18.9208 5.6143 18.2619 6.00304 17.8378L11.0583 12.323L5.51351 6.77824Z" fill="#B5B5C3"/>
</svg>
