<svg width="17" height="15" viewBox="0 0 17 15" fill="none" xmlns="http://www.w3.org/2000/svg">
<path opacity="0.7" d="M10.1205 4.16693H8.90625V8.3336L12.371 10.4503L12.9539 9.44193L10.1205 7.7086V4.16693Z" fill="#8950FC"/>
<path d="M9.71429 0C5.69095 0 2.42857 3.35833 2.42857 7.5H0L3.20571 10.8583L6.47619 7.5H4.04762C4.04762 4.275 6.58143 1.66667 9.71429 1.66667C12.8471 1.66667 15.381 4.275 15.381 7.5C15.381 10.725 12.8471 13.3333 9.71429 13.3333C8.15191 13.3333 6.73524 12.675 5.71524 11.6167L4.56571 12.8C5.88524 14.1667 7.69048 15 9.71429 15C13.7376 15 17 11.6417 17 7.5C17 3.35833 13.7376 0 9.71429 0Z" fill="#8950FC"/>
</svg>
