<svg width="25" height="31" viewBox="0 0 25 31" fill="none" xmlns="http://www.w3.org/2000/svg">
<path d="M16.4432 8.73926L17.1413 30.0037H7.52405L8.52333 8.73926H16.4432Z" stroke="#B5B5C3"/>
<path opacity="0.74" d="M14.5293 12.1909C14.5293 13.3846 13.5732 14.3557 12.3867 14.3557C11.2003 14.3557 10.2441 13.3896 10.2441 12.1909C10.2441 10.9922 11.2003 10.0262 12.3867 10.0262C13.5732 10.0262 14.5293 10.9922 14.5293 12.1909Z" fill="#B5B5C3"/>
<path d="M12.091 1.21893C12.091 1.21893 12.076 1.20882 12.081 1.1633L11.9909 1.0672L11.9809 1.05708L11.9759 1.09249C11.9458 1.05708 11.9558 1.03179 11.9558 1.03179C11.9308 1.0065 11.9008 0.9711 11.8958 0.930638C11.8958 0.930638 11.8757 0.80925 11.8757 0.743499C11.8757 0.71821 11.8607 0.677747 11.8457 0.662574C11.8457 0.662574 11.8057 0.520955 11.8157 0.495666C11.8157 0.495666 11.8207 0.460261 11.8357 0.445088C11.8357 0.445088 11.8457 0.409683 11.8357 0.374278C11.8357 0.384394 11.8257 0.39451 11.8107 0.409683C11.8107 0.409683 11.7706 0.409683 11.7556 0.359105C11.7556 0.359105 11.7556 0.359105 11.7556 0.338874V0.328758C11.7556 0.328758 11.7456 0.263006 11.7706 0.252891H11.7055C11.7055 0.252891 11.6955 0.207371 11.7406 0.202313C11.7055 0.156792 11.7506 0.121387 11.7506 0.121387C11.7506 0.146676 11.7556 0.136561 11.7556 0.136561C11.7506 0.0910409 11.7656 0.0960987 11.7656 0.0960987C11.7806 0.136561 11.7806 0.111272 11.7806 0.111272C11.7506 0.0252892 11.7806 0.0404625 11.7806 0.0404625C11.7806 0.0708093 11.8057 0.101156 11.8057 0.101156C11.8207 0.101156 11.8157 0 11.8157 0C11.8357 0.0202313 11.8507 0.0758675 11.8507 0.0758675C11.8507 0.106214 11.8657 0.0910408 11.8657 0.0910408C11.8607 0.0455205 11.8807 0.0455204 11.8807 0.0455204C11.8958 0.0455204 11.9008 0.00505793 11.9008 0.00505793C11.9158 0.0354048 11.9108 0.0505781 11.9058 0.0606937C11.9058 0.0657515 11.9008 0.0758671 11.9008 0.0809249C11.9008 0.106214 11.9158 0.0910408 11.9158 0.0910408C11.9358 0.030347 11.9709 0.0455204 11.9709 0.0455204C11.9558 0.0505782 11.9558 0.0758675 11.9558 0.0758675C11.9608 0.101157 11.9909 0.0758675 11.9909 0.0758675C11.9909 0.11633 12.0109 0.0910408 12.0109 0.0910408C12.0159 0.197255 11.9158 0.182081 11.9158 0.182081C11.8958 0.182081 11.8808 0.182081 11.8707 0.182081C11.9508 0.197255 12.086 0.257949 12.1961 0.490608V0.505781C12.1961 0.505781 12.2262 0.541186 12.2612 0.581649C12.4865 0.834539 12.7017 0.733383 12.7017 0.733383C12.7268 0.713152 12.7568 0.703036 12.7869 0.69292C12.8069 0.687863 12.8319 0.682805 12.8519 0.677747C12.897 0.637285 12.9571 0.632227 13.0071 0.637285C13.0422 0.475435 13.1923 0.515897 13.1923 0.515897C13.1273 0.551302 13.0922 0.586707 13.0772 0.622111C13.1873 0.515897 13.2975 0.622111 13.2975 0.622111C13.2524 0.622111 13.2124 0.622111 13.1823 0.632227C13.2774 0.667631 13.2825 0.778903 13.2825 0.778903C13.2374 0.733383 13.1923 0.703036 13.1573 0.69292C13.2624 0.794077 13.1823 0.930638 13.1823 0.930638C13.1723 0.864886 13.1523 0.814308 13.1273 0.783961C13.1823 0.890175 13.1122 1.0065 13.1122 1.0065C13.1072 0.9711 13.0972 0.945811 13.0922 0.915464C13.1072 1.08237 13.0722 1.07226 13.0722 1.07226C13.0722 1.01156 13.0522 0.960984 13.0372 0.920522C13.0622 1.01156 13.0271 1.11272 13.0271 1.11272C13.0171 1.01156 12.9821 0.935695 12.937 0.885117C13.0321 1.0065 12.9921 1.12789 12.9921 1.12789C12.9721 1.06214 12.942 1.01156 12.912 0.9711C12.942 1.05203 12.912 1.1026 12.912 1.1026C12.907 1.04697 12.872 0.991331 12.8319 0.940753C12.8319 0.940753 12.8469 1.11778 12.7919 1.15318V1.14307H12.7768L12.7618 1.20882L12.7518 1.18353C12.7518 1.18353 12.7518 1.26445 12.7518 1.2594C12.7518 1.25434 12.7368 1.20376 12.7368 1.20376V1.21893H12.7218V1.23411C12.7218 1.23411 12.7118 1.23916 12.7118 1.23411V1.21388L12.7017 1.23411C12.7017 1.23411 12.6967 1.23916 12.6967 1.23411C12.6967 1.23411 12.6867 1.23411 12.6917 1.23411C12.6917 1.23411 12.6867 1.24928 12.6817 1.24422L12.6717 1.22905H12.6617V1.23916C12.6617 1.23916 12.6567 1.24422 12.6517 1.23916V1.22399H12.6417" fill="#B5B5C3"/>
<path d="M12.4014 1.16339H12.3213V2.72626H12.4014V1.16339Z" fill="#B5B5C3"/>
<path d="M16.942 3.1156H7.97607V3.52617H16.942V3.1156Z" fill="#B5B5C3"/>
<path d="M13.2976 2.72614H11.4253V3.63148H13.2976V2.72614Z" fill="#B5B5C3"/>
<path fill-rule="evenodd" clip-rule="evenodd" d="M8.83691 3.81348H15.9455V7.97606H8.83691V3.81348ZM11.5601 4.35449H13.2721V7.48528H11.5601V4.35449ZM11.1545 4.35449H9.44238V7.48528H11.1545V4.35449ZM13.6777 4.35449H15.3898V7.48528H13.6777V4.35449Z" fill="#B5B5C3"/>
<path d="M16.4432 8.73926L17.1413 30.0037H7.52405L8.52333 8.73926H16.4432Z" stroke="white"/>
<path opacity="0.74" d="M14.5293 12.1909C14.5293 13.3846 13.5732 14.3557 12.3867 14.3557C11.2003 14.3557 10.2441 13.3896 10.2441 12.1909C10.2441 10.9922 11.2003 10.0262 12.3867 10.0262C13.5732 10.0262 14.5293 10.9922 14.5293 12.1909Z" fill="white"/>
<path d="M12.091 1.21893C12.091 1.21893 12.076 1.20882 12.081 1.1633L11.9909 1.0672L11.9809 1.05708L11.9759 1.09249C11.9458 1.05708 11.9558 1.03179 11.9558 1.03179C11.9308 1.0065 11.9008 0.9711 11.8958 0.930638C11.8958 0.930638 11.8757 0.80925 11.8757 0.743499C11.8757 0.71821 11.8607 0.677747 11.8457 0.662574C11.8457 0.662574 11.8057 0.520955 11.8157 0.495666C11.8157 0.495666 11.8207 0.460261 11.8357 0.445088C11.8357 0.445088 11.8457 0.409683 11.8357 0.374278C11.8357 0.384394 11.8257 0.39451 11.8107 0.409683C11.8107 0.409683 11.7706 0.409683 11.7556 0.359105C11.7556 0.359105 11.7556 0.359105 11.7556 0.338874V0.328758C11.7556 0.328758 11.7456 0.263006 11.7706 0.252891H11.7055C11.7055 0.252891 11.6955 0.207371 11.7406 0.202313C11.7055 0.156792 11.7506 0.121387 11.7506 0.121387C11.7506 0.146676 11.7556 0.136561 11.7556 0.136561C11.7506 0.0910409 11.7656 0.0960987 11.7656 0.0960987C11.7806 0.136561 11.7806 0.111272 11.7806 0.111272C11.7506 0.0252892 11.7806 0.0404625 11.7806 0.0404625C11.7806 0.0708093 11.8057 0.101156 11.8057 0.101156C11.8207 0.101156 11.8157 0 11.8157 0C11.8357 0.0202313 11.8507 0.0758675 11.8507 0.0758675C11.8507 0.106214 11.8657 0.0910408 11.8657 0.0910408C11.8607 0.0455205 11.8807 0.0455204 11.8807 0.0455204C11.8958 0.0455204 11.9008 0.00505793 11.9008 0.00505793C11.9158 0.0354048 11.9108 0.0505781 11.9058 0.0606937C11.9058 0.0657515 11.9008 0.0758671 11.9008 0.0809249C11.9008 0.106214 11.9158 0.0910408 11.9158 0.0910408C11.9358 0.030347 11.9709 0.0455204 11.9709 0.0455204C11.9558 0.0505782 11.9558 0.0758675 11.9558 0.0758675C11.9608 0.101157 11.9909 0.0758675 11.9909 0.0758675C11.9909 0.11633 12.0109 0.0910408 12.0109 0.0910408C12.0159 0.197255 11.9158 0.182081 11.9158 0.182081C11.8958 0.182081 11.8808 0.182081 11.8707 0.182081C11.9508 0.197255 12.086 0.257949 12.1961 0.490608V0.505781C12.1961 0.505781 12.2262 0.541186 12.2612 0.581649C12.4865 0.834539 12.7017 0.733383 12.7017 0.733383C12.7268 0.713152 12.7568 0.703036 12.7869 0.69292C12.8069 0.687863 12.8319 0.682805 12.8519 0.677747C12.897 0.637285 12.9571 0.632227 13.0071 0.637285C13.0422 0.475435 13.1923 0.515897 13.1923 0.515897C13.1273 0.551302 13.0922 0.586707 13.0772 0.622111C13.1873 0.515897 13.2975 0.622111 13.2975 0.622111C13.2524 0.622111 13.2124 0.622111 13.1823 0.632227C13.2774 0.667631 13.2825 0.778903 13.2825 0.778903C13.2374 0.733383 13.1923 0.703036 13.1573 0.69292C13.2624 0.794077 13.1823 0.930638 13.1823 0.930638C13.1723 0.864886 13.1523 0.814308 13.1273 0.783961C13.1823 0.890175 13.1122 1.0065 13.1122 1.0065C13.1072 0.9711 13.0972 0.945811 13.0922 0.915464C13.1072 1.08237 13.0722 1.07226 13.0722 1.07226C13.0722 1.01156 13.0522 0.960984 13.0372 0.920522C13.0622 1.01156 13.0271 1.11272 13.0271 1.11272C13.0171 1.01156 12.9821 0.935695 12.937 0.885117C13.0321 1.0065 12.9921 1.12789 12.9921 1.12789C12.9721 1.06214 12.942 1.01156 12.912 0.9711C12.942 1.05203 12.912 1.1026 12.912 1.1026C12.907 1.04697 12.872 0.991331 12.8319 0.940753C12.8319 0.940753 12.8469 1.11778 12.7919 1.15318V1.14307H12.7768L12.7618 1.20882L12.7518 1.18353C12.7518 1.18353 12.7518 1.26445 12.7518 1.2594C12.7518 1.25434 12.7368 1.20376 12.7368 1.20376V1.21893H12.7218V1.23411C12.7218 1.23411 12.7118 1.23916 12.7118 1.23411V1.21388L12.7017 1.23411C12.7017 1.23411 12.6967 1.23916 12.6967 1.23411C12.6967 1.23411 12.6867 1.23411 12.6917 1.23411C12.6917 1.23411 12.6867 1.24928 12.6817 1.24422L12.6717 1.22905H12.6617V1.23916C12.6617 1.23916 12.6567 1.24422 12.6517 1.23916V1.22399H12.6417" fill="white"/>
<path d="M12.4014 1.16339H12.3213V2.72626H12.4014V1.16339Z" fill="white"/>
<path d="M16.942 3.1156H7.97607V3.52617H16.942V3.1156Z" fill="white"/>
<path d="M13.2976 2.72614H11.4253V3.63148H13.2976V2.72614Z" fill="white"/>
<path fill-rule="evenodd" clip-rule="evenodd" d="M8.83691 3.81348H15.9455V7.97606H8.83691V3.81348ZM11.5601 4.35449H13.2721V7.48528H11.5601V4.35449ZM11.1545 4.35449H9.44238V7.48528H11.1545V4.35449ZM13.6777 4.35449H15.3898V7.48528H13.6777V4.35449Z" fill="white"/>
</svg>
