<svg width="25" height="25" viewBox="0 0 25 25" fill="none" xmlns="http://www.w3.org/2000/svg">
<path fill-rule="evenodd" clip-rule="evenodd" d="M5.15234 3.125C4.60006 3.125 4.15234 3.57271 4.15234 4.125V20.875C4.15234 21.4273 4.60006 21.875 5.15235 21.875H6.26595C6.81823 21.875 7.26595 21.4273 7.26595 20.875V4.125C7.26595 3.57272 6.81823 3.125 6.26595 3.125H5.15234ZM10.3399 3.125C9.78762 3.125 9.33991 3.57271 9.33991 4.125V20.875C9.33991 21.4273 9.78762 21.875 10.3399 21.875H11.4535C12.0058 21.875 12.4535 21.4273 12.4535 20.875V4.125C12.4535 3.57272 12.0058 3.125 11.4535 3.125H10.3399Z" fill="#B5B5C3"/>
<rect opacity="0.3" width="3.11481" height="18.7428" rx="1" transform="matrix(0.945151 -0.326633 0.324506 0.945884 13.9883 4.08789)" fill="#B5B5C3"/>
</svg>
