<svg width="25" height="25" viewBox="0 0 25 25" fill="none" xmlns="http://www.w3.org/2000/svg">
<path d="M12.8596 10.3081C10.6355 10.3081 8.83252 8.67211 8.83252 6.65404C8.83252 4.63597 10.6355 3 12.8596 3C15.0836 3 16.8866 4.63597 16.8866 6.65404C16.8866 8.67211 15.0836 10.3081 12.8596 10.3081Z" stroke="#B5B5C3" stroke-width="2"/>
<path d="M4.00064 21.1223C4.3822 15.8904 8.19538 13.2305 12.8431 13.2305C17.5562 13.2305 21.4285 15.7443 21.7169 21.1232C21.7284 21.3375 21.7169 22.0002 20.9775 22.0002C17.3297 22.0002 11.9093 22.0002 4.71614 22.0002C4.46927 22.0002 3.97986 21.4073 4.00064 21.1223Z" stroke="#B5B5C3" stroke-width="2"/>
</svg>
