<svg width="23" height="24" viewBox="0 0 23 24" fill="none" xmlns="http://www.w3.org/2000/svg">
<path opacity="0.3" d="M14.796 17.9395C14.2347 17.3881 14.2347 16.4942 14.796 15.9429C15.3574 15.3916 16.2676 15.3916 16.829 15.9429L22.579 21.59C23.1404 22.1413 23.1404 23.0352 22.579 23.5865C22.0176 24.1378 21.1074 24.1378 20.5461 23.5865L14.796 17.9395Z" fill="#B5B5C3"/>
<path fill-rule="evenodd" clip-rule="evenodd" d="M0 9.88234C0 15.3402 4.50515 19.7647 10.0625 19.7647C15.6199 19.7647 20.1251 15.3402 20.1251 9.88234C20.1251 4.42448 15.6199 0 10.0625 0C4.50515 0 0 4.42448 0 9.88234ZM17.2501 9.88206C17.2501 13.7805 14.0321 16.9409 10.0625 16.9409C6.09297 16.9409 2.875 13.7805 2.875 9.88206C2.875 5.98358 6.09297 2.82324 10.0625 2.82324C14.0321 2.82324 17.2501 5.98358 17.2501 9.88206Z" fill="#B5B5C3"/>
</svg>
