<svg width="25" height="25" viewBox="0 0 25 25" fill="none" xmlns="http://www.w3.org/2000/svg">
<path d="M19.0928 15.1859C19.1781 14.9871 19.3731 14.858 19.5866 14.8572H19.6581C20.9578 14.8572 22.0152 13.8006 22.0152 12.5019C22.0152 11.2033 20.9578 10.1467 19.6581 10.1467H19.5261C19.3429 10.146 19.1751 10.0535 19.0762 9.90463C19.0652 9.85056 19.0485 9.79768 19.0261 9.74691C18.9364 9.54393 18.9781 9.3104 19.1323 9.15101L19.1744 9.10893C19.1756 9.10782 19.1768 9.10667 19.1779 9.10552C19.6228 8.66043 19.8677 8.06884 19.8673 7.43973C19.867 6.81169 19.6222 6.22132 19.1782 5.77698C19.177 5.77579 19.1759 5.77464 19.1747 5.77345C18.7296 5.32914 18.1381 5.08456 17.509 5.08456C17.5085 5.08456 17.5081 5.08456 17.5076 5.08456C16.878 5.08489 16.2862 5.33022 15.8416 5.77501L15.7976 5.81902C15.6381 5.97306 15.4044 6.01477 15.2012 5.92519C15.1987 5.92411 15.1961 5.923 15.1936 5.92192C14.9947 5.83672 14.8655 5.64186 14.8647 5.42863V5.35716C14.8647 4.05852 13.8072 3.00195 12.5075 3.00195C11.2078 3.00195 10.1504 4.05852 10.1504 5.35716V5.48908C10.1497 5.67211 10.0572 5.83973 9.90816 5.93859C9.85404 5.94953 9.80112 5.96631 9.75032 5.98868C9.5472 6.0783 9.31345 6.03659 9.15394 5.88251L9.10841 5.83698C8.66323 5.39267 8.07179 5.14809 7.44266 5.14809C7.44221 5.14809 7.44169 5.14809 7.44128 5.14809C6.81167 5.14842 6.21986 5.39375 5.77368 5.8401C5.32872 6.28515 5.08386 6.87674 5.08423 7.50585C5.08456 8.13497 5.33009 8.72626 5.77524 9.17053L5.81925 9.21451C5.97345 9.37389 6.01519 9.60738 5.92554 9.81041C5.91896 9.82521 5.91295 9.84021 5.90734 9.85538C5.83068 10.0636 5.63901 10.2022 5.4177 10.2102H5.35705C4.05742 10.2102 3 11.2668 3 12.5654C3 13.8641 4.05742 14.9206 5.35716 14.9206H5.48916C5.70567 14.9215 5.90062 15.0504 5.98589 15.2492C5.98696 15.2518 5.98808 15.2543 5.98916 15.2568C6.07885 15.4598 6.0371 15.6933 5.88286 15.8527L5.83885 15.8967C5.83785 15.8977 5.83685 15.8988 5.83581 15.8998C5.39181 16.3447 5.14752 16.9357 5.14785 17.564C5.14818 18.1931 5.39371 18.7845 5.83915 19.229C5.84023 19.2302 5.84134 19.2313 5.84246 19.2323C6.76216 20.1482 8.25596 20.1466 9.17351 19.2287L9.21756 19.1847C9.37703 19.0307 9.61075 18.9889 9.8139 19.0786C9.82868 19.0851 9.84368 19.0911 9.85887 19.0967C10.0673 19.1733 10.206 19.3649 10.214 19.586V19.6466C10.214 20.9452 11.2714 22.0018 12.5711 22.0018C13.8708 22.0018 14.9282 20.9452 14.9282 19.6466V19.5148C14.9291 19.2984 15.0582 19.1036 15.2572 19.0184C15.2597 19.0173 15.2622 19.0162 15.2647 19.0151C15.4679 18.9255 15.7016 18.9672 15.8611 19.1213L15.9067 19.1668C16.3519 19.6111 16.9433 19.8557 17.5725 19.8557C17.5729 19.8557 17.5734 19.8557 17.5738 19.8557C18.2034 19.8553 18.7953 19.61 19.2414 19.1637C20.1599 18.2449 20.1591 16.7507 19.2399 15.8332L19.1959 15.7892C19.0417 15.6299 19 15.3964 19.0896 15.1933C19.0907 15.1909 19.0918 15.1884 19.0928 15.1859ZM18.0999 16.865C18.1019 16.867 18.1039 16.8691 18.1058 16.8711L18.1538 16.919C18.474 17.2386 18.4743 17.759 18.1532 18.0802C17.9982 18.2352 17.7921 18.3206 17.5728 18.3208C17.5726 18.3208 17.5725 18.3208 17.5723 18.3208C17.3532 18.3208 17.1472 18.2356 16.9913 18.0799L16.9436 18.0323C16.9416 18.0303 16.9396 18.0283 16.9376 18.0263C16.3274 17.43 15.4291 17.2665 14.6479 17.6093C13.8881 17.9366 13.3952 18.6816 13.3919 19.5117V19.6466C13.3919 20.0989 13.0237 20.4669 12.571 20.4669C12.1184 20.4669 11.7502 20.0989 11.7502 19.6466V19.5752C11.7502 19.5692 11.7501 19.5632 11.7499 19.5572C11.73 18.707 11.2057 17.9667 10.4119 17.6647C9.63511 17.3325 8.74616 17.4982 8.14087 18.0898C8.13886 18.0918 8.13686 18.0938 8.13485 18.0957L8.08687 18.1437C7.76703 18.4636 7.24623 18.464 6.92598 18.1443C6.92505 18.1434 6.92409 18.1425 6.9232 18.1416C6.76903 17.9869 6.68413 17.7816 6.68399 17.5633C6.68384 17.3442 6.76915 17.1382 6.92409 16.9832C6.92498 16.9823 6.92583 16.9814 6.92673 16.9806L6.9727 16.9346C6.97471 16.9326 6.97671 16.9306 6.97868 16.9285C7.57547 16.3189 7.73906 15.4213 7.39609 14.6408C7.0686 13.8815 6.32288 13.389 5.49209 13.3857H5.35702C4.9044 13.3857 4.53617 13.0177 4.53617 12.5655C4.53617 12.1132 4.90444 11.7453 5.35702 11.7452H5.42854C5.43452 11.7452 5.44054 11.7452 5.44652 11.745C6.29756 11.7251 7.0384 11.2012 7.34064 10.408C7.67296 9.63187 7.50724 8.7437 6.91517 8.1389C6.91321 8.1369 6.9112 8.13489 6.9092 8.13289L6.86125 8.08494C6.70612 7.93009 6.62063 7.72417 6.62052 7.50507C6.62037 7.28602 6.70567 7.07999 6.86188 6.92372C7.01686 6.76872 7.22294 6.68329 7.44221 6.68318C7.4424 6.68318 7.44251 6.68318 7.44269 6.68318C7.66181 6.68318 7.86782 6.76838 8.02377 6.92406L8.07146 6.97167C8.07342 6.97367 8.07547 6.97568 8.07747 6.97764C8.65004 7.53725 9.47638 7.71567 10.2216 7.45223C10.2921 7.44321 10.3611 7.42447 10.4267 7.39638C11.1888 7.07001 11.6834 6.32378 11.6867 5.49224V5.35727C11.6867 4.90502 12.055 4.53708 12.5076 4.53708C12.9602 4.53708 13.3285 4.90506 13.3285 5.35731V5.43182C13.3317 6.25888 13.8246 7.00399 14.5845 7.33126C15.3658 7.67407 16.264 7.51049 16.8741 6.91419C16.8761 6.91222 16.8781 6.91022 16.8802 6.90821L16.9282 6.8603C17.0831 6.7053 17.2892 6.61987 17.5085 6.61976C17.5087 6.61976 17.5088 6.61976 17.509 6.61976C17.7274 6.61976 17.9329 6.70444 18.0877 6.8583C18.0885 6.85919 18.0894 6.86004 18.0903 6.86093C18.2455 7.01579 18.3309 7.22171 18.3311 7.4408C18.3312 7.6593 18.2464 7.86474 18.0923 8.01959C18.0915 8.02034 18.0908 8.02108 18.09 8.02186L18.0423 8.06951C18.0403 8.07147 18.0384 8.07348 18.0364 8.07552C17.4763 8.64763 17.2977 9.47334 17.5614 10.218C17.5705 10.2884 17.5892 10.3574 17.6173 10.4229C17.944 11.1844 18.6908 11.6786 19.523 11.6819H19.658C20.1107 11.6819 20.4789 12.0499 20.4789 12.5021C20.4789 12.9544 20.1106 13.3223 19.658 13.3223H19.5835C18.7558 13.3256 18.0101 13.8181 17.6825 14.5774C17.3395 15.3577 17.5031 16.2554 18.0999 16.865Z" fill="#B5B5C3"/>
<path d="M12.5081 9.35156C10.7703 9.35156 9.35645 10.7642 9.35645 12.5006C9.35645 14.2371 10.7702 15.6497 12.5081 15.6497C14.2459 15.6497 15.6597 14.2371 15.6597 12.5006C15.6597 10.7642 14.2458 9.35156 12.5081 9.35156ZM12.5081 14.1147C11.6174 14.1147 10.8927 13.3906 10.8927 12.5006C10.8927 11.6106 11.6174 10.8865 12.5081 10.8865C13.3988 10.8865 14.1234 11.6106 14.1234 12.5006C14.1234 13.3906 13.3988 14.1147 12.5081 14.1147Z" fill="#B5B5C3"/>
</svg>
